Simulation
nRows=38
nColumns=15
endheader
time  TH_x TH_y TH_z SC_y  SC_z  SC_x  AC_y  AC_z  AC_x  GH_y  GH_z  GH_yy  EL_x  PS_y
1.549999999999999  0.000000  0.000000  0.000000  -56.33608494622732  11.964099029642995  50.954112239777054  53.91593348721717  -7.5845454376724675  -4.674442836106366  34.20420954555225  49.205015518201314  -42.63795319940479  18.259213043793988  120.000000
1.5809999999999989  0.000000  0.000000  0.000000  -55.58446712249454  11.830019693440121  50.39078758634626  53.421488730833445  -7.921114059930897  -5.697370847586861  34.9710616969651  48.45594194952915  -43.219608396333676  18.43173441272503  120.000000
1.611999999999999  0.000000  0.000000  0.000000  -54.77156313329178  11.665519790390682  49.63831814312518  52.89701496514986  -8.166716870646894  -6.709236142492002  35.820943790468014  47.54118626808103  -43.82986656243073  18.63945574303569  120.000000
1.642999999999999  0.000000  0.000000  0.000000  -53.915406670070546  11.462229311752518  48.70735900201025  52.36583852721578  -8.304723691175345  -7.672618745147187  36.72914324117904  46.44965920589511  -44.44228413930296  18.875623357584043  120.000000
1.6739999999999988  0.000000  0.000000  0.000000  -53.03682191993701  11.2173061007676  47.618589898571805  51.85269153470792  -8.348094124397017  -8.559078676526568  37.6579941584118  45.18572472775534  -45.01844996070773  19.130743849676513  120.000000
1.7049999999999987  0.000000  0.000000  0.000000  -52.15870773865923  10.935709964062  46.39970621819602  51.37900455455477  -8.348094254325902  -9.351617152786586  38.54763025073933  43.77613291069587  -45.50795552757909  19.3942340328115  120.000000
1.7359999999999989  0.000000  0.000000  0.000000  -51.3003909741522  10.617092903325885  45.06226365406101  50.96034097148105  -8.348077118491192  -10.038367208928985  39.32977572831174  42.25749146564978  -45.851592675544914  19.653625085696966  120.000000
1.7669999999999988  0.000000  0.000000  0.000000  -50.47274894416287  10.251953859573236  43.5842805107985  50.60386414605265  -8.348094242699776  -10.603074413571717  39.94788263417171  40.66528503839153  -45.99021018015185  19.890670359146906  120.000000
1.7979999999999987  0.000000  0.000000  0.000000  -49.67613420253896  9.840556668635823  41.93401790821239  50.302224935902494  -8.34809425117909  -11.029893312031332  40.354358408685314  39.04295267395186  -45.876799101373464  20.08486398572353  120.000000
1.8289999999999988  0.000000  0.000000  0.000000  -48.89978720222513  9.394256427978869  40.07573084231778  50.03540274305381  -8.348094251909036  -11.298984110046826  40.523594185817124  37.43739152794222  -45.48817557449019  20.21603449775603  120.000000
1.8599999999999988  0.000000  0.000000  0.000000  -48.119723495120404  8.913339776166472  37.95017087513761  49.782028103796215  -8.287467462032534  -11.380093038568793  40.47545428559974  35.87671088937834  -44.832371697576896  20.267855825028178  120.000000
1.8909999999999987  0.000000  0.000000  0.000000  -47.30629843887579  8.38369772263043  35.48798049283639  49.525771545882044  -8.053805389422049  -11.243067091934998  40.26419883367936  34.3673744261515  -43.94984179154958  20.232159014492908  120.000000
1.9219999999999986  0.000000  0.000000  0.000000  -46.44451333573455  7.7945492029129095  32.64810337931462  49.25556095063776  -7.557245211763139  -10.868109352295658  39.94867295483628  32.91165619845416  -42.9091311657967  20.105994994560515  120.000000
1.9529999999999987  0.000000  0.000000  0.000000  -45.545016475887735  7.146531024397677  29.43801983738658  48.96499660287859  -6.767299044072982  -10.2482804610266  39.57975208389012  31.515446469799784  -41.7948296853417  19.890578649915312  120.000000
1.9839999999999987  0.000000  0.000000  0.000000  -44.63682345758645  6.448155455675876  25.90860059949013  48.65272991896185  -5.698757439746839  -9.389543041840586  39.20124601547309  30.18353267123661  -40.688378769964906  19.59341249571023  120.000000
2.014999999999999  0.000000  0.000000  0.000000  -43.753744602333896  5.714211430510321  22.143909111195537  48.32119077247285  -4.393877209388626  -8.310956391286318  38.85025192222532  28.914609910414928  -39.651695398544994  19.228163034148825  120.000000
2.0459999999999985  0.000000  0.000000  0.000000  -42.92452486889818  4.9645520889782  18.248156261937847  47.97619511699998  -2.9087719532288068  -7.043025482311687  38.55763357133588  27.70042303883889  -38.721288531891986  18.812297870778366  120.000000
2.0769999999999986  0.000000  0.000000  0.000000  -42.167740645150005  4.221342602664376  14.332939287603725  47.62683257871488  -1.303466099882326  -5.625764838286571  38.349396091232045  26.52755582876701  -37.91166627948141  18.36427716919612  120.000000
2.1079999999999988  0.000000  0.000000  0.000000  -41.490673099296444  3.5061860787468477  10.505898201991446  47.28429016665527  0.3638665481396821  -4.105960184856748  38.247802213835364  25.380985444878124  -37.2243308493517  17.90168452310425  120.000000
2.1389999999999985  0.000000  0.000000  0.000000  -40.89307070645963  2.8363549443339973  6.8620128723814195  46.961505335316666  2.0405268126978986  -2.534398229601328  38.272948343390276  24.249309064320503  -36.65744042488374  17.4396711547608  120.000000
2.1699999999999986  0.000000  0.000000  0.000000  -40.36965954129508  2.224434947840038  3.477670653881364  46.67016740037578  3.680234695550911  -0.9622419858878469  38.44407590532219  23.127247027002703  -36.211513900914355  16.99076448069817  120.000000
2.2009999999999983  0.000000  0.000000  0.000000  -39.910562717303385  1.6802609434735236  0.4079455747086946  46.417144510935834  5.2430140884030285  0.5629902783409935  38.780451507192254  22.014510765100546  -35.89045483438351  16.56542521895538  120.000000
2.2319999999999984  0.000000  0.000000  0.000000  -39.50538925358572  1.2093531594625848  -2.3125361694134674  46.20513460989579  6.696563567775771  1.999631423988377  39.300374332987296  20.915364831164545  -35.6993659630734  16.17280448762419  120.000000
2.2629999999999986  0.000000  0.000000  0.000000  -39.145373885009946  0.8125135541785788  -4.667745023024149  46.03391485320299  8.016613185924182  3.3136116235444364  40.01795468600461  19.837738471126066  -35.642592155584296  15.822241593406986  120.000000
2.2939999999999983  0.000000  0.000000  0.000000  -38.822422961721855  0.4878703200266283  -6.657208344553905  45.90092848338154  9.18545939383812  4.480649152545998  40.93953504526914  18.790593439716833  -35.72208675629785  15.523409947631277  120.000000
2.3249999999999984  0.000000  0.000000  0.000000  -38.530327098992785  0.2301049954940376  -8.292829571536249  45.80471358904129  10.192214919651713  5.4864387280148685  42.06006949726483  17.783625271761338  -35.93816189102023  15.285092188172234  120.000000
2.3559999999999985  0.000000  0.000000  0.000000  -38.26578810877075  0.028966587017636148  -9.595942317915036  45.74705602190126  11.033450075732416  6.325271645454267  43.360898135736996  16.827655011072476  -36.29099939092417  15.1140803666141  120.000000
2.3869999999999982  0.000000  0.000000  0.000000  -38.02742683181266  -0.12883588676026367  -10.594597384876426  45.73176001867367  11.711978106722775  6.9996866279660725  44.811314448278274  15.932878972593972  -36.78065492056704  15.013433114779724  120.000000
2.4179999999999984  0.000000  0.000000  0.000000  -37.81386909862317  -0.25548269041257743  -11.321949339094722  45.76232601519222  12.234877103665127  7.520435620101443  46.37303160016877  15.106590481533312  -37.40564005428777  14.98119922814855  120.000000
2.4489999999999985  0.000000  0.000000  0.000000  -37.62357165978659  -0.3607392128184937  -11.81493447014845  45.84031230360887  12.614397314896916  7.904506697025445  48.005511995091425  14.351740123605582  -38.160535054824045  15.011401191560998  120.000000
2.479999999999998  0.000000  0.000000  0.000000  -37.45455135865441  -0.4523494310807151  -12.113497322864683  45.96170741222028  12.86961917265411  8.173088039748437  49.67227664906998  13.666361416396219  -39.032022532106396  15.09672814588437  120.000000
2.5109999999999983  0.000000  0.000000  0.000000  -37.301367674656994  -0.534353889274564  -12.261416052259243  46.11543961887619  13.025704934805697  8.350026075783777  51.34468068219521  13.044860865234178  -39.99713307357801  15.230415858014618  120.000000
2.5419999999999985  0.000000  0.000000  0.000000  -37.15462121662461  -0.6062004723195265  -12.30783395715975  46.2820800948533  13.112715116820887  8.462582713117333  53.00271519556378  12.480119576952355  -41.02515421490262  15.4072381765263  120.000000
2.572999999999998  0.000000  0.000000  0.000000  -37.00256271654503  -0.6635307709431895  -12.30877522824366  46.434661803212286  13.164217198135185  8.541608395073336  54.63231119054823  11.96792225664186  -42.08233062945439  15.623225598773075  120.000000
2.6039999999999983  0.000000  0.000000  0.000000  -36.834783288729774  -0.7004475584250798  -12.306314985545495  46.55006849755562  13.206765826750944  8.60997044102404  56.22314737607554  11.504041043013759  -43.137788954336706  15.87243092917634  120.000000
2.634999999999998  0.000000  0.000000  0.000000  -36.64627539821334  -0.7125567337679555  -12.308007912745223  46.61942119990717  13.249746322576868  8.672715233572761  57.76663262657276  11.07913317647085  -44.16801711442951  16.14459837496017  120.000000
2.665999999999998  0.000000  0.000000  0.000000  -36.43639124598731  -0.6977114591528311  -12.308775111959635  46.64276692714274  13.29313418843339  8.727973275920567  59.25321305556327  10.687587523206247  -45.15966934484199  16.42565557924088  120.000000
2.6969999999999983  0.000000  0.000000  0.000000  -36.207276372147824  -0.6553522248408812  -12.308774594319184  46.621598079486084  13.335866495173601  8.77775150217906  60.67243682715518  10.330876094371318  -46.10771163554752  16.699565532830977  120.000000
